Coordinates
version=1
nRows=4
nColumns=63
inDegrees=yes

Units are S.I. units (second, meters, Newtons, ...)
If the header above contains a line with 'inDegrees', this indicates whether rotational values are in degrees (yes) or radians (no).

endheader
time	pelvis_tilt	pelvis_list	pelvis_rotation	pelvis_tx	pelvis_ty	pelvis_tz	hip_flexion_r	hip_adduction_r	hip_rotation_r	knee_angle_r	knee_angle_r_beta	ankle_angle_r	subtalar_angle_r	mtp_angle_r	hip_flexion_l	hip_adduction_l	hip_rotation_l	knee_angle_l	knee_angle_l_beta	ankle_angle_l	subtalar_angle_l	mtp_angle_l	L5_S1_Flex_Ext	L5_S1_Lat_Bending	L5_S1_axial_rotation	L4_L5_Flex_Ext	L4_L5_Lat_Bending	L4_L5_axial_rotation	L3_L4_Flex_Ext	L3_L4_Lat_Bending	L3_L4_axial_rotation	L2_L3_Flex_Ext	L2_L3_Lat_Bending	L2_L3_axial_rotation	L1_L2_Flex_Ext	L1_L2_Lat_Bending	L1_L2_axial_rotation	L1_T12_Flex_Ext	L1_T12_Lat_Bending	L1_T12_axial_rotation	Abs_r3	Abs_r2	Abs_r1	Abs_t1	Abs_t2	neck_flexion	neck_bending	neck_rotation	arm_flex_r	arm_add_r	arm_rot_r	elbow_flex_r	pro_sup_r	wrist_flex_r	wrist_dev_r	arm_flex_l	arm_add_l	arm_rot_l	elbow_flex_l	pro_sup_l	wrist_flex_l	wrist_dev_l
      1.21666667	     -3.19588171	     -4.93304448	     89.45200741	      0.19905649	      0.95268590	      0.50880273	     -2.07331968	     -1.14863105	     -8.40786955	      6.81399359	      0.11892662	     34.67816376	     15.51796645	      0.00000000	     -1.98022670	      2.77785605	     -8.93655967	      6.14065311	      0.10717461	     36.37838472	      7.71619322	      0.00000000	     -0.06057869	     -0.11104225	      0.74028798	     -0.11250069	     -0.14768620	      0.78655598	     -0.09952473	     -0.26998813	      0.78655598	     -0.06923539	     -0.26998813	      0.64775199	     -0.05625337	     -0.22643736	      0.60148399	     -0.03461466	     -0.17200445	      0.55521599	     -0.43270754	     -1.25613217	      4.11725968	      0.00000000	      0.00000000	     10.42138722	      7.88349716	     -7.42620280	     -8.61486108	    -14.81319409	     -9.07214278	     42.52782683	     78.90728565	     -6.38378142	      6.92090192	     -1.08931485	    -24.06781342	     25.07522744	     42.65051225	     87.23419772	     -1.83073960	     -1.11429029
      1.23333333	     -3.24617169	     -4.97515587	     89.03507901	      0.20011170	      0.95281712	      0.50726907	     -2.13044010	     -1.15705922	     -8.03404882	      6.57261638	      0.11471380	     34.66789140	     15.64852250	      0.00000000	     -2.21404455	      2.85446561	     -9.08533643	      5.79701312	      0.10117697	     36.18516327	      7.47325270	      0.00000000	     -0.04181479	     -0.10783862	      0.81184145	     -0.07765425	     -0.14342536	      0.86258154	     -0.06869752	     -0.26219881	      0.86258154	     -0.04779012	     -0.26219881	      0.71036127	     -0.03882922	     -0.21990451	      0.65962118	     -0.02389297	     -0.16704202	      0.60888109	     -0.29867887	     -1.21989200	      4.51521858	      0.00000000	      0.00000000	     10.35632178	      8.01211805	     -7.66471102	     -8.47439691	    -14.94007359	     -8.30970518	     42.63418545	     79.42508562	     -5.89265800	      6.79366801	     -0.87188196	    -24.33596305	     25.89769469	     42.62755928	     87.49285034	     -1.65415884	     -1.26610804
      1.25000000	     -3.24635484	     -4.81257874	     88.29308052	      0.20125212	      0.95330571	      0.50562327	     -2.35384777	     -1.13147546	     -6.86775832	      6.36565904	      0.11110171	     34.61890474	     15.09044501	      0.00000000	     -2.94837403	      3.14060879	     -6.01550159	      4.81484152	      0.08403484	     34.97477713	      2.72485798	      0.00000000	     -0.04716990	     -0.08943313	      0.97614572	     -0.08759922	     -0.11894607	      1.03715483	     -0.07749543	     -0.21744772	      1.03715483	     -0.05391048	     -0.21744772	      0.85412750	     -0.04380197	     -0.18237204	      0.79311840	     -0.02695288	     -0.13853192	      0.73210929	     -0.33692989	     -1.01168548	      5.42902965	      0.00000000	      0.00000000	     10.12104232	      7.76974851	     -7.98504905	     -8.58009321	    -14.81937534	     -8.74735086	     42.83456870	     80.16058190	     -4.92655946	      6.34905904	     -0.03743430	    -24.50381990	     27.91533579	     41.97016995	     87.25475164	     -1.64408525	     -1.73690922
      1.26666667	     -3.24371373	     -4.66742679	     88.00947028	      0.20183753	      0.95375497	      0.50400439	     -2.63271174	     -1.11784457	     -6.71972832	      6.15805062	      0.10747826	     34.67871479	     15.22997354	      0.00000000	     -3.34185957	      3.16632784	     -6.17433425	      4.54588926	      0.07934074	     34.76783793	      2.67393492	      0.00000000	     -0.04469270	     -0.07083707	      0.98225762	     -0.08299881	     -0.09421330	      1.04364873	     -0.07342563	     -0.17223324	      1.04364873	     -0.05107928	     -0.17223324	      0.85947542	     -0.04150164	     -0.14445094	      0.79808432	     -0.02553741	     -0.10972661	      0.73669322	     -0.31923546	     -0.80132305	      5.46302223	      0.00000000	      0.00000000	      9.76899388	      7.48840439	     -7.77601330	     -8.51381245	    -14.88457986	     -8.22523858	     43.10751855	     80.32883229	     -4.37989444	      6.04199632	      0.25056698	    -24.58665036	     28.71366567	     41.59406395	     87.49830568	     -1.09144478	     -1.51586969
